<svg width="256" height="256" viewBox="0 0 256 256" xmlns="http://www.w3.org/2000/svg">
  <rect width="256" height="256" rx="52" fill="#242B57"/>
  <rect x="8" y="8" width="240" height="240" rx="46" fill="none" stroke="#003B71" stroke-width="2" opacity="0.6"/>
  <rect x="62" y="90" width="56" height="90" rx="6" fill="#003B71"/>
  <rect x="138" y="90" width="56" height="90" rx="6" fill="#003B71"/>
  <rect x="66" y="94" width="48" height="82" rx="4" fill="#0a4a8a"/>
  <rect x="142" y="94" width="48" height="82" rx="4" fill="#0a4a8a"/>
  <rect x="76" y="108" width="28" height="4" rx="2" fill="#003B71"/>
  <rect x="76" y="116" width="28" height="4" rx="2" fill="#003B71"/>
  <rect x="76" y="124" width="28" height="4" rx="2" fill="#003B71"/>
  <rect x="152" y="108" width="28" height="4" rx="2" fill="#003B71"/>
  <rect x="152" y="116" width="28" height="4" rx="2" fill="#003B71"/>
  <rect x="152" y="124" width="28" height="4" rx="2" fill="#003B71"/>
  <rect x="104" y="132" width="8" height="14" rx="4" fill="#7aaee0"/>
  <rect x="144" y="132" width="8" height="14" rx="4" fill="#7aaee0"/>
  <rect x="104" y="148" width="48" height="38" rx="8" fill="#7aaee0"/>
  <path d="M116 148 L116 134 Q128 122 140 134 L140 148" fill="none" stroke="#fff" stroke-width="8" stroke-linecap="round"/>
  <circle cx="128" cy="164" r="6" fill="#242B57"/>
  <rect x="125" y="168" width="6" height="8" rx="2" fill="#242B57"/>
</svg>
